<svg width="25" height="24" viewBox="0 0 25 24" fill="none" xmlns="http://www.w3.org/2000/svg">
<path d="M15.5999 6.99997C15.5999 8.71204 14.212 10.0999 12.4999 10.0999V11.8999C15.2061 11.8999 17.3999 9.70614 17.3999 6.99997H15.5999ZM12.4999 10.0999C10.7879 10.0999 9.39997 8.71204 9.39997 6.99997H7.59998C7.59998 9.70614 9.79377 11.8999 12.4999 11.8999V10.0999ZM9.39997 6.99997C9.39997 5.2879 10.7879 3.89999 12.4999 3.89999V2.10001C9.79377 2.10001 7.59998 4.29379 7.59998 6.99997H9.39997ZM12.4999 3.89999C14.212 3.89999 15.5999 5.2879 15.5999 6.99997H17.3999C17.3999 4.29379 15.2061 2.10001 12.4999 2.10001V3.89999ZM18.5999 17.4999C18.5999 17.9418 18.2182 18.5842 17.0472 19.1698C15.9299 19.7284 14.3235 20.0999 12.4999 20.0999V21.8998C14.5423 21.8998 16.4359 21.4878 17.8521 20.7797C19.2146 20.0985 20.3999 18.9909 20.3999 17.4999H18.5999ZM12.4999 20.0999C10.6764 20.0999 9.06996 19.7284 7.95272 19.1698C6.78166 18.5842 6.39999 17.9418 6.39999 17.4999H4.60001C4.60001 18.9909 5.78533 20.0985 7.14775 20.7797C8.56399 21.4878 10.4575 21.8998 12.4999 21.8998V20.0999ZM6.39999 17.4999C6.39999 17.0579 6.78166 16.4155 7.95272 15.83C9.06996 15.2714 10.6764 14.8999 12.4999 14.8999V13.0999C10.4575 13.0999 8.56399 13.5119 7.14775 14.22C5.78533 14.9013 4.60001 16.0089 4.60001 17.4999H6.39999ZM12.4999 14.8999C14.3235 14.8999 15.9299 15.2714 17.0472 15.83C18.2182 16.4155 18.5999 17.0579 18.5999 17.4999H20.3999C20.3999 16.0089 19.2146 14.9013 17.8521 14.22C16.4359 13.5119 14.5423 13.0999 12.4999 13.0999V14.8999Z" fill="#808080"/>
</svg>
