<svg width="27" height="27" viewBox="0 0 27 27" fill="none" xmlns="http://www.w3.org/2000/svg">
<path d="M7.90234 13.8524C7.90234 13.637 7.98795 13.4303 8.14032 13.2779C8.29269 13.1255 8.49936 13.0399 8.71484 13.0399H12.4989V9.25586C12.4989 9.04037 12.5845 8.83371 12.7369 8.68134C12.8893 8.52896 13.0959 8.44336 13.3114 8.44336C13.5269 8.44336 13.7336 8.52896 13.886 8.68134C14.0383 8.83371 14.1239 9.04037 14.1239 9.25586V13.0399H17.908C18.1235 13.0399 18.3302 13.1255 18.4825 13.2779C18.6349 13.4303 18.7205 13.637 18.7205 13.8524C18.7205 14.0679 18.6349 14.2746 18.4825 14.427C18.3302 14.5793 18.1235 14.6649 17.908 14.6649H14.1239V18.449C14.1239 18.6645 14.0383 18.8712 13.886 19.0236C13.7336 19.1759 13.5269 19.2615 13.3114 19.2615C13.0959 19.2615 12.8893 19.1759 12.7369 19.0236C12.5845 18.8712 12.4989 18.6645 12.4989 18.449V14.6649H8.71484C8.49936 14.6649 8.29269 14.5793 8.14032 14.427C7.98795 14.2746 7.90234 14.0679 7.90234 13.8524Z" fill="black"/>
<path fill-rule="evenodd" clip-rule="evenodd" d="M8.2379 4.93562C11.6097 4.56182 15.0126 4.56182 18.3844 4.93562C20.3636 5.15662 21.9616 6.71554 22.1934 8.70562C22.5942 12.1257 22.5942 15.5805 22.1934 19.0005C21.9605 20.9906 20.3626 22.5485 18.3844 22.7705C15.0126 23.1444 11.6097 23.1444 8.2379 22.7705C6.25865 22.5485 4.66073 20.9906 4.4289 19.0005C4.02891 15.5806 4.02891 12.1256 4.4289 8.70562C4.66073 6.71554 6.25973 5.15662 8.2379 4.93562ZM18.2046 6.54979C14.9522 6.18929 11.6701 6.18929 8.41773 6.54979C7.81566 6.61658 7.25369 6.8844 6.82261 7.30998C6.39153 7.73556 6.11651 8.29404 6.04198 8.8952C5.65669 12.1896 5.65669 15.5177 6.04198 18.812C6.11673 19.413 6.39185 19.9712 6.82291 20.3966C7.25398 20.822 7.81582 21.0896 8.41773 21.1564C11.6428 21.516 14.9795 21.516 18.2046 21.1564C18.8063 21.0894 19.3679 20.8216 19.7987 20.3963C20.2296 19.9709 20.5045 19.4128 20.5792 18.812C20.9645 15.5177 20.9645 12.1896 20.5792 8.8952C20.5043 8.2946 20.2292 7.73674 19.7984 7.31161C19.3676 6.88648 18.8061 6.61888 18.2046 6.55195" fill="black"/>
</svg>
