<svg width="20" height="21" viewBox="0 0 20 21" fill="none" xmlns="http://www.w3.org/2000/svg">
<path d="M8.99961 0.399902C7.72657 0.399902 6.50567 0.905615 5.6055 1.80579C4.70532 2.70596 4.19961 3.92686 4.19961 5.1999C4.19961 6.47294 4.70532 7.69384 5.6055 8.59402C6.50567 9.49419 7.72657 9.9999 8.99961 9.9999C10.2726 9.9999 11.4935 9.49419 12.3937 8.59402C13.2939 7.69384 13.7996 6.47294 13.7996 5.1999C13.7996 3.92686 13.2939 2.70596 12.3937 1.80579C11.4935 0.905615 10.2726 0.399902 8.99961 0.399902ZM5.39961 5.1999C5.39961 4.24512 5.77889 3.32945 6.45403 2.65432C7.12916 1.97919 8.04483 1.5999 8.99961 1.5999C9.95439 1.5999 10.8701 1.97919 11.5452 2.65432C12.2203 3.32945 12.5996 4.24512 12.5996 5.1999C12.5996 6.15468 12.2203 7.07036 11.5452 7.74549C10.8701 8.42062 9.95439 8.7999 8.99961 8.7999C8.04483 8.7999 7.12916 8.42062 6.45403 7.74549C5.77889 7.07036 5.39961 6.15468 5.39961 5.1999ZM3.01041 11.1999C2.69433 11.1985 2.38108 11.2595 2.08865 11.3795C1.79622 11.4995 1.53037 11.676 1.30637 11.899C1.08236 12.122 0.904612 12.3871 0.783326 12.679C0.66204 12.9708 0.599606 13.2838 0.599609 13.5999C0.599609 15.6291 1.59921 17.1591 3.16161 18.1563C4.70001 19.1367 6.77361 19.5999 8.99961 19.5999C9.42841 19.5999 9.85081 19.5827 10.2668 19.5483C10.1757 19.1512 10.1778 18.7385 10.2728 18.3423C9.86081 18.3807 9.43641 18.3999 8.99961 18.3999C6.91761 18.3999 5.09121 17.9631 3.80721 17.1435C2.54721 16.3395 1.79961 15.1719 1.79961 13.5999C1.79961 12.9363 2.33721 12.3999 3.01041 12.3999H14.4272C14.4141 12.0841 14.4652 11.769 14.5772 11.4735L14.6804 11.1999H3.01041ZM15.7004 11.8983L16.04 10.9983C16.3496 10.1811 17.3144 9.7779 18.128 10.1247L18.5936 10.3239C19.1612 10.5663 19.6304 11.0055 19.73 11.5959C20.2784 14.8659 17.4404 19.5171 14.174 20.7039C13.5836 20.9175 12.9464 20.7519 12.44 20.4087L12.0248 20.1267C11.8543 20.0119 11.7108 19.8614 11.6041 19.6858C11.4975 19.5101 11.4302 19.3134 11.4069 19.1092C11.3836 18.905 11.4049 18.6981 11.4693 18.503C11.5338 18.3078 11.6398 18.1289 11.78 17.9787L12.434 17.2503C12.5876 17.0811 12.7836 16.956 13.0017 16.8879C13.2199 16.8197 13.4522 16.8111 13.6748 16.8627L15.1448 17.2107C16.3104 16.4827 16.9352 15.4587 17.0192 14.1387L15.9656 13.1079C15.8083 12.9541 15.6993 12.7577 15.6522 12.5427C15.6051 12.3278 15.6218 12.1038 15.7004 11.8983Z" fill="#0C0C0C"/>
</svg>
