<svg width="25" height="24" viewBox="0 0 25 24" fill="none" xmlns="http://www.w3.org/2000/svg">
<path d="M8.24609 4V2M16.2461 4V2M12.2461 22C8.23909 22 6.23609 22 4.99109 20.682C3.74609 19.364 3.74609 17.242 3.74609 13C3.74609 8.758 3.74609 6.636 4.99109 5.318C6.23609 4 8.23909 4 12.2461 4C16.2531 4 18.2561 4 19.5011 5.318C20.7461 6.636 20.7461 8.758 20.7461 13C20.7461 17.242 20.7461 19.364 19.5011 20.682C18.2561 22 16.2531 22 12.2461 22Z" stroke="black" stroke-width="1.5" stroke-linecap="round" stroke-linejoin="round"/>
<path d="M14.2639 9.49316C14.2639 10.0236 14.0532 10.5323 13.6781 10.9074C13.3031 11.2824 12.7944 11.4932 12.2639 11.4932C11.7335 11.4932 11.2248 11.2824 10.8497 10.9074C10.4746 10.5323 10.2639 10.0236 10.2639 9.49316C10.2639 8.96273 10.4746 8.45402 10.8497 8.07895C11.2248 7.70388 11.7335 7.49316 12.2639 7.49316C12.7944 7.49316 13.3031 7.70388 13.6781 8.07895C14.0532 8.45402 14.2639 8.96273 14.2639 9.49316ZM8.30892 16.7162C9.36692 15.0862 11.0479 14.4762 12.2639 14.4772C13.4799 14.4782 15.1119 15.0872 16.1699 16.7172C16.2379 16.8222 16.2569 16.9512 16.1949 17.0612C15.9479 17.5002 15.1789 18.3712 14.6249 18.4302C13.9869 18.4972 12.3179 18.5072 12.2649 18.5072C12.2119 18.5072 10.4929 18.4972 9.85492 18.4302C9.29892 18.3702 8.53092 17.5002 8.28292 17.0602C8.22192 16.9512 8.24092 16.8222 8.30892 16.7162Z" stroke="black" stroke-width="1.5" stroke-linecap="round" stroke-linejoin="round"/>
</svg>
