<svg width="22" height="22" viewBox="0 0 22 22" fill="none" xmlns="http://www.w3.org/2000/svg">
<path d="M20.833 15C20.833 17.828 20.833 19.243 19.954 20.121C19.076 21 17.661 21 14.833 21H6.83301C4.00501 21 2.59001 21 1.71201 20.121C0.833008 19.243 0.833008 17.828 0.833008 15V11C0.833008 8.172 0.833008 6.757 1.71201 5.879C2.59001 5 4.00501 5 6.83301 5H14.833C17.661 5 19.076 5 19.954 5.879C20.833 6.757 20.833 8.172 20.833 11V15Z" stroke="#0C0C0C" stroke-width="1.5"/>
<path d="M7.83301 1L10.833 4.5L13.833 1M14.833 5V21" stroke="#0C0C0C" stroke-width="1.5" stroke-linecap="round"/>
<path d="M18.833 15C18.833 14.7348 18.7277 14.4804 18.5401 14.2929C18.3526 14.1054 18.0982 14 17.833 14C17.5678 14 17.3134 14.1054 17.1259 14.2929C16.9384 14.4804 16.833 14.7348 16.833 15C16.833 15.2652 16.9384 15.5196 17.1259 15.7071C17.3134 15.8946 17.5678 16 17.833 16C18.0982 16 18.3526 15.8946 18.5401 15.7071C18.7277 15.5196 18.833 15.2652 18.833 15ZM18.833 11C18.833 10.7348 18.7277 10.4804 18.5401 10.2929C18.3526 10.1054 18.0982 10 17.833 10C17.5678 10 17.3134 10.1054 17.1259 10.2929C16.9384 10.4804 16.833 10.7348 16.833 11C16.833 11.2652 16.9384 11.5196 17.1259 11.7071C17.3134 11.8946 17.5678 12 17.833 12C18.0982 12 18.3526 11.8946 18.5401 11.7071C18.7277 11.5196 18.833 11.2652 18.833 11Z" fill="#0C0C0C"/>
</svg>
