<svg width="24" height="24" viewBox="0 0 24 24" fill="none" xmlns="http://www.w3.org/2000/svg">
<g clip-path="url(#clip0_2189_2288)">
<path fill-rule="evenodd" clip-rule="evenodd" d="M12 7.5C9.51 7.5 7.5 9.51 7.5 12C7.5 14.49 9.51 16.5 12 16.5C14.49 16.5 16.5 14.49 16.5 12C16.5 9.51 14.49 7.5 12 7.5ZM9 12C8.9998 11.2042 9.31576 10.4408 9.87837 9.87793C10.441 9.31504 11.2042 8.9987 12 8.9985C12.7958 8.9983 13.5592 9.31426 14.1221 9.87687C14.685 10.4395 15.0013 11.2027 15.0015 11.9985C15.0016 12.3926 14.9241 12.7828 14.7734 13.1469C14.6227 13.511 14.4017 13.8419 14.1231 14.1206C13.8446 14.3993 13.5138 14.6204 13.1498 14.7713C12.7858 14.9222 12.3956 14.9999 12.0015 15C11.6074 15.0001 11.2172 14.9226 10.8531 14.7719C10.489 14.6212 10.1581 14.4002 9.87943 14.1216C9.31654 13.559 9.0002 12.7958 9 12Z" fill="#171B2A"/>
<path fill-rule="evenodd" clip-rule="evenodd" d="M8.4 1.8C8.46986 1.70685 8.56045 1.63125 8.66459 1.57918C8.76873 1.52711 8.88357 1.5 9 1.5H15.75C15.8664 1.5 15.9813 1.52711 16.0854 1.57918C16.1896 1.63125 16.2801 1.70685 16.35 1.8L18.375 4.5H20.25C21.2446 4.5 22.1984 4.89509 22.9016 5.59835C23.6049 6.30161 24 7.25544 24 8.25V17.25C24 18.2446 23.6049 19.1984 22.9016 19.9016C22.1984 20.6049 21.2446 21 20.25 21H3.75C2.75544 21 1.80161 20.6049 1.09835 19.9016C0.395088 19.1984 0 18.2446 0 17.25L0 8.25C0 7.25544 0.395088 6.30161 1.09835 5.59835C1.80161 4.89509 2.75544 4.5 3.75 4.5H6.375L8.4 1.8ZM9.375 3L7.35 5.7C7.28014 5.79315 7.18955 5.86875 7.08541 5.92082C6.98127 5.97289 6.86643 6 6.75 6H3.75C3.15326 6 2.58097 6.23705 2.15901 6.65901C1.73705 7.08097 1.5 7.65326 1.5 8.25V17.25C1.5 17.8467 1.73705 18.419 2.15901 18.841C2.58097 19.2629 3.15326 19.5 3.75 19.5H20.25C20.8467 19.5 21.419 19.2629 21.841 18.841C22.2629 18.419 22.5 17.8467 22.5 17.25V8.25C22.5 7.65326 22.2629 7.08097 21.841 6.65901C21.419 6.23705 20.8467 6 20.25 6H18C17.8836 6 17.7687 5.97289 17.6646 5.92082C17.5604 5.86875 17.4699 5.79315 17.4 5.7L15.375 3H9.375Z" fill="#171B2A"/>
</g>
<defs>
<clipPath id="clip0_2189_2288">
<rect width="24" height="24" fill="white"/>
</clipPath>
</defs>
</svg>
