<svg width="16" height="17" viewBox="0 0 16 17" fill="none" xmlns="http://www.w3.org/2000/svg">
<path d="M3.37988 13.1167C3.37988 11.3667 6.71322 10.4042 8.37988 10.4042C10.0465 10.4042 13.3799 11.3667 13.3799 13.1167V13.9917H3.37988M10.8799 6.1167C10.8799 6.81289 10.6165 7.48057 10.1476 7.97285C9.67881 8.46514 9.04292 8.7417 8.37988 8.7417C7.71684 8.7417 7.08096 8.46514 6.61211 7.97285C6.14327 7.48057 5.87988 6.81289 5.87988 6.1167C5.87988 5.42051 6.14327 4.75283 6.61211 4.26054C7.08096 3.76826 7.71684 3.4917 8.37988 3.4917C9.04292 3.4917 9.67881 3.76826 10.1476 4.26054C10.6165 4.75283 10.8799 5.42051 10.8799 6.1167ZM0.879883 2.6167V14.8667C0.879883 15.3308 1.05548 15.7759 1.36804 16.1041C1.6806 16.4323 2.10452 16.6167 2.54655 16.6167H14.2132C14.6552 16.6167 15.0792 16.4323 15.3917 16.1041C15.7043 15.7759 15.8799 15.3308 15.8799 14.8667V2.6167C15.8799 2.15257 15.7043 1.70745 15.3917 1.37926C15.0792 1.05107 14.6552 0.866699 14.2132 0.866699H2.54655C2.10452 0.866699 1.6806 1.05107 1.36804 1.37926C1.05548 1.70745 0.879883 2.15257 0.879883 2.6167Z" fill="#218CC0"/>
</svg>
