<svg width="17" height="17" viewBox="0 0 17 17" fill="none" xmlns="http://www.w3.org/2000/svg">
<path d="M5.06445 6.5968C5.06445 6.11412 5.2562 5.65121 5.5975 5.30991C5.93881 4.9686 6.40172 4.77686 6.8844 4.77686H12.798C13.037 4.77686 13.2737 4.82393 13.4945 4.91539C13.7153 5.00685 13.9159 5.14091 14.0849 5.30991C14.2539 5.4789 14.388 5.67953 14.4795 5.90034C14.5709 6.12115 14.618 6.35781 14.618 6.5968V12.5104C14.618 12.7494 14.5709 12.9861 14.4795 13.2069C14.388 13.4277 14.2539 13.6283 14.0849 13.7973C13.9159 13.9663 13.7153 14.1004 13.4945 14.1919C13.2737 14.2833 13.037 14.3304 12.798 14.3304H6.8844C6.6454 14.3304 6.40874 14.2833 6.18794 14.1919C5.96713 14.1004 5.7665 13.9663 5.5975 13.7973C5.42851 13.6283 5.29445 13.4277 5.20299 13.2069C5.11153 12.9861 5.06445 12.7494 5.06445 12.5104V6.5968Z" stroke="white" stroke-width="1.36479" stroke-linecap="round" stroke-linejoin="round"/>
<path d="M3.02555 11.4214C2.81605 11.3024 2.6418 11.13 2.5205 10.9218C2.39921 10.7137 2.33519 10.4771 2.33496 10.2361V3.41215C2.33496 2.66152 2.94912 2.04736 3.69975 2.04736H10.5237C11.0355 2.04736 11.3139 2.31009 11.5473 2.72976" stroke="white" stroke-width="1.36479" stroke-linecap="round" stroke-linejoin="round"/>
</svg>
