<svg width="25" height="25" viewBox="0 0 25 25" fill="none" xmlns="http://www.w3.org/2000/svg">
<path d="M22.4756 12.2815V18.8525C22.4756 19.383 22.2649 19.8917 21.8898 20.2668C21.5147 20.6418 21.006 20.8525 20.4756 20.8525H7.47559C6.94515 20.8525 6.43645 20.6418 6.06137 20.2668C5.6863 19.8917 5.47559 19.383 5.47559 18.8525V17.3525M22.4756 12.2815V10.8525C22.4756 10.3221 22.2649 9.8134 21.8898 9.43833C21.5147 9.06325 21.006 8.85254 20.4756 8.85254H19.4756M22.4756 12.2815H19.4756" stroke="black" stroke-width="1.5" stroke-linecap="round" stroke-linejoin="round"/>
<path d="M19.4756 8.85254V15.3525C19.4756 15.883 19.2649 16.3917 18.8898 16.7668C18.5147 17.1418 18.006 17.3525 17.4756 17.3525H4.47559C3.94515 17.3525 3.43645 17.1418 3.06137 16.7668C2.6863 16.3917 2.47559 15.883 2.47559 15.3525V7.35254C2.47559 6.82211 2.6863 6.3134 3.06137 5.93833C3.43645 5.56325 3.94515 5.35254 4.47559 5.35254H17.4756C18.006 5.35254 18.5147 5.56325 18.8898 5.93833C19.2649 6.3134 19.4756 6.82211 19.4756 7.35254V8.85254ZM19.4756 8.85254H5.97559" stroke="black" stroke-width="1.5" stroke-linecap="round" stroke-linejoin="round"/>
</svg>
