<svg width="25" height="24" viewBox="0 0 25 24" fill="none" xmlns="http://www.w3.org/2000/svg">
<path d="M8.36991 20C7.92191 20 7.54057 19.8426 7.22591 19.528C6.91124 19.2133 6.75391 18.8323 6.75391 18.385V5.99998H5.75391V4.99998H9.75391V4.22998H15.7539V4.99998H19.7539V5.99998H18.7539V18.385C18.7539 18.845 18.5999 19.2293 18.2919 19.538C17.9839 19.8466 17.5992 20.0006 17.1379 20H8.36991ZM17.7539 5.99998H7.75391V18.385C7.75391 18.5643 7.81157 18.7116 7.92691 18.827C8.04224 18.9423 8.18991 19 8.36991 19H17.1389C17.2922 19 17.4332 18.936 17.5619 18.808C17.6906 18.68 17.7546 18.5386 17.7539 18.384V5.99998ZM10.5619 17H11.5619V7.99998H10.5619V17ZM13.9459 17H14.9459V7.99998H13.9459V17Z" fill="#C81E1E"/>
</svg>
