<svg width="25" height="24" viewBox="0 0 25 24" fill="none" xmlns="http://www.w3.org/2000/svg">
<path d="M12.2505 11.2216C10.9682 10.2736 9.04646 8.61592 3.53675 8.61592V20.4856C9.04646 20.4856 10.9682 22.1434 12.2505 23.0914M12.2505 11.2216V23.0914M12.2505 11.2216C13.5327 10.2736 15.4545 8.61592 20.9642 8.61592V20.4856C15.4545 20.4856 13.5327 22.1434 12.2505 23.0914M15.655 0.985639V5.15478M18.7013 0.893068H7.25503C6.93524 0.892679 6.62171 0.981749 6.34989 1.15021L3.33789 3.02564L6.34989 4.89764C6.62171 5.0661 6.93524 5.15517 7.25503 5.15478H18.7013C18.9861 5.16286 19.2697 5.11375 19.5351 5.01034C19.8006 4.90693 20.0427 4.75133 20.247 4.55274C20.4513 4.35416 20.6137 4.11661 20.7246 3.85417C20.8355 3.59172 20.8926 3.3097 20.8926 3.02478C20.8926 2.73987 20.8355 2.45785 20.7246 2.1954C20.6137 1.93295 20.4513 1.69541 20.247 1.49682C20.0427 1.29823 19.8006 1.14263 19.5351 1.03923C19.2697 0.935818 18.9861 0.884987 18.7013 0.893068Z" stroke="#0C0C0C" stroke-linecap="round" stroke-linejoin="round"/>
</svg>
