<svg width="24" height="24" viewBox="0 0 24 24" fill="none" xmlns="http://www.w3.org/2000/svg">
<path d="M17.25 19.5C18.0784 19.5 18.75 18.8284 18.75 18C18.75 17.1716 18.0784 16.5 17.25 16.5C16.4216 16.5 15.75 17.1716 15.75 18C15.75 18.8284 16.4216 19.5 17.25 19.5Z" fill="#218CC0"/>
<path d="M23.0828 17.6097C22.6193 16.4291 21.8197 15.4104 20.7829 14.68C19.7461 13.9495 18.5177 13.5394 17.25 13.5004C15.9823 13.5394 14.7539 13.9495 13.7171 14.68C12.6803 15.4104 11.8807 16.4291 11.4173 17.6097L11.25 18.0004L11.4173 18.3919C11.8808 19.5724 12.6805 20.5908 13.7173 21.3212C14.7541 22.0515 15.9824 22.4615 17.25 22.5004C18.5176 22.4615 19.7459 22.0515 20.7827 21.3212C21.8195 20.5908 22.6192 19.5724 23.0828 18.3919L23.25 18.0004L23.0828 17.6097ZM17.25 21.0004C16.6567 21.0004 16.0766 20.8245 15.5833 20.4948C15.0899 20.1652 14.7054 19.6966 14.4784 19.1485C14.2513 18.6003 14.1919 17.9971 14.3076 17.4151C14.4234 16.8332 14.7091 16.2987 15.1287 15.8791C15.5482 15.4595 16.0828 15.1738 16.6647 15.0581C17.2467 14.9423 17.8499 15.0017 18.3981 15.2288C18.9462 15.4558 19.4148 15.8404 19.7444 16.3337C20.0741 16.8271 20.25 17.4071 20.25 18.0004C20.249 18.7958 19.9326 19.5582 19.3702 20.1206C18.8078 20.683 18.0453 20.9994 17.25 21.0004ZM9.29925 15.6004C8.68575 15.1401 8.2001 14.5306 7.88838 13.8298C7.57667 13.129 7.44926 12.3602 7.51824 11.5963C7.58721 10.8324 7.85029 10.0988 8.28249 9.46521C8.71469 8.83159 9.30168 8.31895 9.98771 7.97597C10.6737 7.63299 11.4361 7.47105 12.2023 7.50553C12.9685 7.54 13.7132 7.76975 14.3656 8.17295C15.0181 8.57615 15.5567 9.13943 15.9302 9.80931C16.3038 10.4792 16.4999 11.2334 16.5 12.0004H15C15 11.489 14.8693 10.9862 14.6203 10.5395C14.3712 10.0929 14.0122 9.71731 13.5772 9.44846C13.1422 9.17962 12.6457 9.02643 12.1348 9.00345C11.624 8.98046 11.1157 9.08844 10.6584 9.31713C10.201 9.54582 9.80964 9.88764 9.52152 10.3101C9.2334 10.7326 9.05805 11.2217 9.01212 11.731C8.9662 12.2403 9.05122 12.7529 9.25913 13.2201C9.46703 13.6873 9.79091 14.0936 10.2 14.4004L9.29925 15.6004Z" fill="#218CC0"/>
<path d="M21.9789 8.283L20.2089 5.217C20.0355 4.91646 19.7633 4.68531 19.4387 4.56291C19.114 4.44052 18.757 4.43446 18.4284 4.54575L16.6029 5.16375C16.2883 4.95186 15.9596 4.76191 15.6189 4.59525L15.2409 2.70525C15.1728 2.36535 14.989 2.05953 14.7209 1.8398C14.4527 1.62007 14.1168 1.5 13.7701 1.5H10.2301C9.88336 1.50004 9.54731 1.62022 9.27917 1.84009C9.01102 2.05997 8.82734 2.36596 8.75937 2.706L8.38137 4.59525C8.03695 4.76024 7.7044 4.94894 7.38612 5.16L5.57112 4.54575C5.2427 4.43485 4.886 4.44111 4.56168 4.56349C4.23735 4.68586 3.96542 4.91679 3.79212 5.217L2.02212 8.283C1.84873 8.58322 1.78469 8.93423 1.84089 9.27634C1.89708 9.61845 2.07005 9.93053 2.33037 10.1595L3.77862 11.4323C3.76587 11.6213 3.75012 11.8088 3.75012 12C3.75012 12.1935 3.75712 12.385 3.77112 12.5745L2.33112 13.8405C2.07056 14.0693 1.8973 14.3813 1.84083 14.7234C1.78436 15.0655 1.84816 15.4166 2.02137 15.717L3.79137 18.783C3.96473 19.0835 4.23691 19.3147 4.56156 19.4371C4.88621 19.5595 5.24325 19.5655 5.57187 19.4543L7.39737 18.8363C7.71189 19.0484 8.04068 19.2386 8.38137 19.4055L8.75862 21.294C8.82662 21.6342 9.01041 21.9403 9.27871 22.1601C9.54701 22.38 9.88323 22.5001 10.2301 22.5H11.2501V21H10.2301L9.69762 18.3375C8.96102 18.0638 8.27723 17.6649 7.67637 17.1585L5.09112 18.033L3.32112 14.967L5.36487 13.1708C5.22464 12.3952 5.22286 11.6009 5.35962 10.8247L3.32112 9.03225L5.09112 5.967L7.66137 6.837C8.2662 6.32942 8.9554 5.93189 9.69762 5.6625L10.2301 3H13.7701L14.3026 5.6625C15.0392 5.93621 15.723 6.33507 16.3239 6.8415L18.9091 5.967L20.6791 9.033L18.5806 10.872L19.5691 12L21.6691 10.1595C21.9297 9.93072 22.1029 9.61873 22.1594 9.27662C22.2159 8.9345 22.1521 8.58338 21.9789 8.283Z" fill="#218CC0"/>
</svg>
