<svg width="24" height="24" viewBox="0 0 24 24" fill="none" xmlns="http://www.w3.org/2000/svg">
<path d="M22 9V7C22 6.46957 21.7893 5.96086 21.4142 5.58579C21.0391 5.21071 20.5304 5 20 5H4C3.46957 5 2.96086 5.21071 2.58579 5.58579C2.21071 5.96086 2 6.46957 2 7V17C2 17.5304 2.21071 18.0391 2.58579 18.4142C2.96086 18.7893 3.46957 19 4 19H12M22 9H6M22 9V13M21 16.05C20.6783 15.7217 20.295 15.46 19.8721 15.2798C19.4492 15.0996 18.995 15.0045 18.5354 14.9998C18.0757 14.9952 17.6196 15.0811 17.1932 15.2527C16.7668 15.4243 16.3783 15.6783 16.05 16C15.7217 16.3217 15.46 16.705 15.2798 17.1279C15.0996 17.5508 15.0045 18.005 14.9998 18.4646C14.9904 19.393 15.3502 20.287 16 20.95M21 16.05C21.6498 16.713 22.0096 17.607 22.0002 18.5354C21.9908 19.4637 21.613 20.3502 20.95 21C20.287 21.6498 19.393 22.0096 18.4646 22.0002C17.5363 21.9908 16.6498 21.613 16 20.95M21 16.05L16 20.95" stroke="#218CC0" stroke-width="1.5" stroke-linecap="round" stroke-linejoin="round"/>
</svg>
