<svg width="25" height="24" viewBox="0 0 25 24" fill="none" xmlns="http://www.w3.org/2000/svg">
<path d="M17.8334 10.8049C17.8334 10.4589 17.8334 10.2859 17.8854 10.1319C18.0364 9.68388 18.4354 9.51088 18.8354 9.32888C19.2834 9.12388 19.5074 9.02188 19.7304 9.00388C19.9824 8.98388 20.2354 9.03788 20.4514 9.15888C20.7374 9.31888 20.9374 9.62488 21.1414 9.87288C22.0844 11.0189 22.5564 11.5919 22.7284 12.2229C22.8684 12.7329 22.8684 13.2669 22.7284 13.7759C22.4774 14.6979 21.6824 15.4699 21.0934 16.1859C20.7924 16.5509 20.6414 16.7339 20.4514 16.8409C20.2317 16.9627 19.9808 17.0167 19.7304 16.9959C19.5074 16.9779 19.2834 16.8759 18.8344 16.6709C18.4344 16.4889 18.0364 16.3159 17.8854 15.8679C17.8334 15.7139 17.8334 15.5409 17.8334 15.1949V10.8049ZM7.8334 10.8049C7.8334 10.3689 7.8214 9.97788 7.4694 9.67188C7.3414 9.56088 7.1714 9.48388 6.8324 9.32888C6.3834 9.12488 6.1594 9.02188 5.9364 9.00388C5.2694 8.94988 4.9104 9.40588 4.5264 9.87388C3.5824 11.0189 3.1104 11.5919 2.9374 12.2239C2.79821 12.7322 2.79821 13.2686 2.9374 13.7769C3.1894 14.6979 3.9854 15.4709 4.5734 16.1859C4.9444 16.6359 5.2994 17.0469 5.9364 16.9959C6.1594 16.9779 6.3834 16.8759 6.8324 16.6709C7.1724 16.5169 7.3414 16.4389 7.4694 16.3279C7.8214 16.0219 7.8334 15.6309 7.8334 15.1959V10.8049Z" stroke="#808080" stroke-width="1.5" stroke-linecap="round" stroke-linejoin="round"/>
<path d="M5.8335 9C5.8335 5.686 8.9675 3 12.8335 3C16.6995 3 19.8335 5.686 19.8335 9M19.8335 17V17.8C19.8335 19.567 18.0435 21 15.8335 21H13.8335" stroke="#808080" stroke-width="1.5" stroke-linecap="round" stroke-linejoin="round"/>
</svg>
