<svg width="24" height="20" viewBox="0 0 24 20" fill="none" xmlns="http://www.w3.org/2000/svg">
<path fill-rule="evenodd" clip-rule="evenodd" d="M0.799805 1.9999C0.799805 1.11625 1.51615 0.399902 2.3998 0.399902H21.5998C22.4835 0.399902 23.1998 1.11625 23.1998 1.9999C23.1998 2.88356 22.4835 3.5999 21.5998 3.5999H2.3998C1.51615 3.5999 0.799805 2.88356 0.799805 1.9999Z" fill="white"/>
<path fill-rule="evenodd" clip-rule="evenodd" d="M0.799805 9.9999C0.799805 9.11625 1.51615 8.3999 2.3998 8.3999H21.5998C22.4835 8.3999 23.1998 9.11625 23.1998 9.9999C23.1998 10.8836 22.4835 11.5999 21.5998 11.5999H2.3998C1.51615 11.5999 0.799805 10.8836 0.799805 9.9999Z" fill="white"/>
<path fill-rule="evenodd" clip-rule="evenodd" d="M10.3998 17.9999C10.3998 17.1162 11.1161 16.3999 11.9998 16.3999H21.5998C22.4835 16.3999 23.1998 17.1162 23.1998 17.9999C23.1998 18.8836 22.4835 19.5999 21.5998 19.5999H11.9998C11.1161 19.5999 10.3998 18.8836 10.3998 17.9999Z" fill="white"/>
</svg>
