<svg width="24" height="24" viewBox="0 0 24 24" fill="none" xmlns="http://www.w3.org/2000/svg">
<path fill-rule="evenodd" clip-rule="evenodd" d="M15.9242 7.25993L15.8292 7.34293L7.34319 15.8279C7.23197 15.939 7.14851 16.0748 7.09959 16.2242C7.05066 16.3736 7.03766 16.5325 7.06162 16.6878C7.08558 16.8432 7.14584 16.9907 7.23751 17.1185C7.32917 17.2462 7.44966 17.3505 7.58919 17.4229L7.70519 17.4729L18.0902 21.2999C20.0422 22.0199 21.9432 20.1849 21.3502 18.2359L21.3002 18.0899L17.4742 7.70493C17.4236 7.56737 17.3434 7.4426 17.2393 7.33947C17.1351 7.23634 17.0096 7.15736 16.8715 7.10813C16.7334 7.0589 16.5863 7.04062 16.4404 7.05458C16.2945 7.06855 16.1534 7.11441 16.0272 7.18893L15.9242 7.25993ZM16.1382 9.86193L19.4232 18.7819C19.4537 18.8649 19.4617 18.9545 19.4463 19.0416C19.4309 19.1287 19.3927 19.2101 19.3356 19.2776C19.2785 19.3451 19.2045 19.3963 19.1211 19.4258C19.0378 19.4554 18.9481 19.4623 18.8612 19.4459L18.7812 19.4229L9.86319 16.1369L16.1382 9.86193ZM6.89319 11.6039C5.98219 11.6519 4.73319 11.8439 3.64719 12.4959C3.42703 12.6265 3.26529 12.8364 3.19529 13.0826C3.12529 13.3288 3.15234 13.5925 3.27089 13.8193C3.38943 14.0461 3.59044 14.2189 3.83252 14.302C4.0746 14.3851 4.33933 14.3722 4.57219 14.2659L4.67619 14.2109C5.35819 13.8009 6.23019 13.6409 6.99819 13.6009C7.31465 13.5834 7.63188 13.5848 7.94819 13.6049L8.26419 13.6359C8.52505 13.6696 8.78868 13.5991 8.99795 13.4398C9.20722 13.2805 9.34529 13.0451 9.38225 12.7847C9.41921 12.5243 9.35208 12.2598 9.1954 12.0485C9.03873 11.8372 8.80512 11.6962 8.54519 11.6559C7.9975 11.5853 7.44428 11.5675 6.89319 11.6029M4.86819 8.81693C4.61339 8.81747 4.36841 8.91524 4.18327 9.09029C3.99812 9.26534 3.88678 9.50446 3.87197 9.75883C3.85717 10.0132 3.94002 10.2636 4.10361 10.459C4.26719 10.6543 4.49918 10.7798 4.75219 10.8099L4.86819 10.8169H5.57619C5.83098 10.8164 6.07597 10.7186 6.26111 10.5436C6.44625 10.3685 6.5576 10.1294 6.5724 9.87504C6.58721 9.62068 6.50436 9.37025 6.34077 9.17491C6.17719 8.97956 5.9452 8.85402 5.69219 8.82393L5.57619 8.81693H4.86819ZM8.05019 8.04993C7.87801 8.22213 7.77458 8.45123 7.7593 8.69425C7.74402 8.93728 7.81794 9.17753 7.96719 9.36993L8.05019 9.46393L9.11019 10.5249C9.28973 10.7062 9.53176 10.812 9.78674 10.8206C10.0417 10.8293 10.2904 10.7401 10.4818 10.5715C10.6732 10.4028 10.7929 10.1673 10.8164 9.91331C10.8399 9.65927 10.7654 9.40586 10.6082 9.20493L10.5252 9.11093L9.46519 8.05093C9.37232 7.95796 9.26203 7.8842 9.14063 7.83387C9.01923 7.78355 8.8891 7.75765 8.75769 7.75765C8.62627 7.75765 8.49615 7.78355 8.37475 7.83387C8.25335 7.8842 8.14306 7.95696 8.05019 8.04993ZM10.6372 2.78493C10.1892 4.13093 10.4292 5.60493 10.7092 6.63493C10.8768 7.2773 11.1079 7.90138 11.3992 8.49793C11.5176 8.7353 11.7255 8.91591 11.9771 9.00002C12.2286 9.08413 12.5033 9.06485 12.7407 8.94643C12.9781 8.82801 13.1587 8.62015 13.2428 8.36857C13.3269 8.11699 13.3076 7.8423 13.1892 7.60493C12.9565 7.12582 12.7723 6.62467 12.6392 6.10893C12.4122 5.27693 12.2982 4.37393 12.4732 3.63393L12.5342 3.41793C12.5778 3.29287 12.5961 3.1604 12.588 3.02821C12.58 2.89602 12.5458 2.76674 12.4874 2.64787C12.429 2.52901 12.3476 2.42293 12.2478 2.3358C12.1481 2.24866 12.032 2.1822 11.9064 2.14028C11.7808 2.09836 11.6481 2.08182 11.516 2.0916C11.3839 2.10138 11.2551 2.13731 11.137 2.19728C11.019 2.25725 10.914 2.34008 10.8282 2.44096C10.7424 2.54184 10.6774 2.65876 10.6372 2.78493ZM5.22219 5.22293C5.03472 5.41046 4.9294 5.66477 4.9294 5.92993C4.9294 6.1951 5.03472 6.44941 5.22219 6.63693L5.92919 7.34393C6.02144 7.43944 6.13178 7.51563 6.25378 7.56804C6.37579 7.62044 6.50701 7.64803 6.63979 7.64918C6.77257 7.65034 6.90425 7.62504 7.02714 7.57476C7.15004 7.52447 7.26169 7.45022 7.35558 7.35633C7.44948 7.26244 7.52373 7.15078 7.57401 7.02789C7.62429 6.90499 7.64959 6.77331 7.64844 6.64053C7.64729 6.50775 7.6197 6.37653 7.56729 6.25453C7.51488 6.13253 7.4387 6.02218 7.34319 5.92993L6.63619 5.22293C6.44866 5.03546 6.19435 4.93015 5.92919 4.93015C5.66403 4.93015 5.40972 5.03546 5.22219 5.22293Z" fill="#3871DB"/>
</svg>
