<svg width="36" height="32" viewBox="0 0 36 32" fill="none" xmlns="http://www.w3.org/2000/svg">
<rect width="36" height="32" rx="4.24716" fill="#218CC0"/>
<g clip-path="url(#clip0_2622_3124)">
<path d="M18.0002 14.875C17.2929 14.875 16.6146 14.5787 16.1145 14.0512C15.6144 13.5238 15.3335 12.8084 15.3335 12.0625C15.3335 11.3166 15.6144 10.6012 16.1145 10.0738C16.6146 9.54632 17.2929 9.25 18.0002 9.25C18.7074 9.25 19.3857 9.54632 19.8858 10.0738C20.3859 10.6012 20.6668 11.3166 20.6668 12.0625C20.6668 12.8084 20.3859 13.5238 19.8858 14.0512C19.3857 14.5787 18.7074 14.875 18.0002 14.875ZM18.0002 10.375C17.1148 10.375 16.4002 11.1288 16.4002 12.0625C16.4002 12.9963 17.1148 13.75 18.0002 13.75C18.8855 13.75 19.6002 12.9963 19.6002 12.0625C19.6002 11.1288 18.8855 10.375 18.0002 10.375Z" fill="white"/>
<path d="M24.4 19.375C24.1013 19.375 23.8667 19.1275 23.8667 18.8125C23.8667 18.4975 24.1013 18.25 24.4 18.25C24.6987 18.25 24.9333 18.0025 24.9333 17.6875C24.9333 16.9416 24.6524 16.2262 24.1523 15.6988C23.6522 15.1713 22.9739 14.875 22.2667 14.875H21.2C20.9013 14.875 20.6667 14.6275 20.6667 14.3125C20.6667 13.9975 20.9013 13.75 21.2 13.75C22.0853 13.75 22.8 12.9963 22.8 12.0625C22.8 11.1288 22.0853 10.375 21.2 10.375C20.9013 10.375 20.6667 10.1275 20.6667 9.8125C20.6667 9.4975 20.9013 9.25 21.2 9.25C21.9072 9.25 22.5855 9.54632 23.0856 10.0738C23.5857 10.6012 23.8667 11.3166 23.8667 12.0625C23.8667 12.76 23.632 13.39 23.2267 13.885C24.816 14.335 26 15.865 26 17.6875C26 18.6213 25.2853 19.375 24.4 19.375ZM11.6 19.375C10.7147 19.375 10 18.6213 10 17.6875C10 15.865 11.1733 14.335 12.7733 13.885C12.3787 13.39 12.1333 12.76 12.1333 12.0625C12.1333 11.3166 12.4143 10.6012 12.9144 10.0738C13.4145 9.54632 14.0928 9.25 14.8 9.25C15.0987 9.25 15.3333 9.4975 15.3333 9.8125C15.3333 10.1275 15.0987 10.375 14.8 10.375C13.9147 10.375 13.2 11.1288 13.2 12.0625C13.2 12.9963 13.9147 13.75 14.8 13.75C15.0987 13.75 15.3333 13.9975 15.3333 14.3125C15.3333 14.6275 15.0987 14.875 14.8 14.875H13.7333C13.0261 14.875 12.3478 15.1713 11.8477 15.6988C11.3476 16.2262 11.0667 16.9416 11.0667 17.6875C11.0667 18.0025 11.3013 18.25 11.6 18.25C11.8987 18.25 12.1333 18.4975 12.1333 18.8125C12.1333 19.1275 11.8987 19.375 11.6 19.375ZM21.2 22.75H14.8C13.9147 22.75 13.2 21.9963 13.2 21.0625V19.9375C13.2 17.7663 14.8747 16 16.9333 16H19.0667C21.1253 16 22.8 17.7663 22.8 19.9375V21.0625C22.8 21.9963 22.0853 22.75 21.2 22.75ZM16.9333 17.125C16.2261 17.125 15.5478 17.4213 15.0477 17.9488C14.5476 18.4762 14.2667 19.1916 14.2667 19.9375V21.0625C14.2667 21.3775 14.5013 21.625 14.8 21.625H21.2C21.4987 21.625 21.7333 21.3775 21.7333 21.0625V19.9375C21.7333 19.1916 21.4524 18.4762 20.9523 17.9488C20.4522 17.4213 19.7739 17.125 19.0667 17.125H16.9333Z" fill="white"/>
</g>
<defs>
<clipPath id="clip0_2622_3124">
<rect width="16" height="18" fill="white" transform="translate(10 7)"/>
</clipPath>
</defs>
</svg>
