<svg width="25" height="24" viewBox="0 0 25 24" fill="none" xmlns="http://www.w3.org/2000/svg">
<g clip-path="url(#clip0_2250_4204)">
<path d="M10.0215 14.1698C8.49788 15.6549 7.66825 17.5883 7.66699 19.4957C7.66139 19.8352 7.70062 20.1728 7.78284 20.5H2.17005H2.1679L2.16869 20.5L2.16987 20.5L2.1668 20.4999C2.16171 20.4997 2.15194 20.4993 2.13816 20.4983C2.11044 20.4964 2.06757 20.4922 2.01482 20.4834C1.90694 20.4654 1.77074 20.4304 1.6406 20.3653C1.51241 20.3012 1.39944 20.2129 1.31739 20.0898C1.23743 19.9699 1.16699 19.7875 1.16699 19.5C1.16699 18.8696 1.49911 17.485 2.54662 16.2629C3.57366 15.0647 5.30834 14 8.16699 14V14L8.17312 14C8.79432 13.9924 9.41377 14.0495 10.0215 14.1698ZM11.1687 20.5L11.1699 20.5L11.1668 20.4999C11.1645 20.4998 11.1612 20.4997 11.157 20.4995C11.1519 20.4992 11.1456 20.4989 11.1382 20.4983C11.1104 20.4964 11.0676 20.4922 11.0148 20.4834C10.9069 20.4654 10.7707 20.4304 10.6406 20.3653C10.5124 20.3012 10.3994 20.2129 10.3174 20.0898C10.2374 19.9699 10.167 19.7875 10.167 19.5C10.167 18.8696 10.4991 17.485 11.5466 16.2629C12.5737 15.0647 14.3083 14 17.167 14C20.0257 14 21.7603 15.0647 22.7874 16.2629C23.8349 17.485 24.167 18.8696 24.167 19.5C24.167 19.7875 24.0966 19.9699 24.0166 20.0898C23.9345 20.2129 23.8216 20.3012 23.6934 20.3653C23.5632 20.4304 23.427 20.4654 23.3192 20.4834C23.2664 20.4922 23.2235 20.4964 23.1958 20.4983C23.182 20.4993 23.1723 20.4997 23.1672 20.4999L23.1641 20.5L23.1653 20.5L23.1661 20.5H23.1639H11.17H11.1679L11.1687 20.5ZM19.9954 10.3284C19.2453 11.0786 18.2279 11.5 17.167 11.5C16.1061 11.5 15.0887 11.0786 14.3386 10.3284C13.5884 9.57828 13.167 8.56087 13.167 7.5C13.167 6.43913 13.5884 5.42172 14.3386 4.67157C15.0887 3.92143 16.1061 3.5 17.167 3.5C18.2279 3.5 19.2453 3.92143 19.9954 4.67157C20.7456 5.42172 21.167 6.43913 21.167 7.5C21.167 8.56087 20.7456 9.57828 19.9954 10.3284ZM9.71509 10.5481C9.1056 11.1576 8.27895 11.5 7.41699 11.5C6.55504 11.5 5.72839 11.1576 5.1189 10.5481C4.5094 9.9386 4.16699 9.11195 4.16699 8.25C4.16699 7.38805 4.5094 6.5614 5.1189 5.9519C5.72839 5.34241 6.55504 5 7.41699 5C8.27895 5 9.1056 5.34241 9.71509 5.9519C10.3246 6.5614 10.667 7.38805 10.667 8.25C10.667 9.11195 10.3246 9.9386 9.71509 10.5481Z" stroke="black"/>
</g>
<defs>
<clipPath id="clip0_2250_4204">
<rect width="24" height="24" fill="white" transform="translate(0.666992)"/>
</clipPath>
</defs>
</svg>
