<svg width="31" height="28" viewBox="0 0 31 28" fill="none" xmlns="http://www.w3.org/2000/svg">
<rect x="0.5" y="0.5" width="30" height="27" rx="3.5" fill="white"/>
<rect x="0.5" y="0.5" width="30" height="27" rx="3.5" stroke="#171B2A"/>
<g clip-path="url(#clip0_2622_3301)">
<path d="M15.5 13C14.837 13 14.2011 12.7366 13.7322 12.2678C13.2634 11.7989 13 11.163 13 10.5C13 9.83696 13.2634 9.20107 13.7322 8.73223C14.2011 8.26339 14.837 8 15.5 8C16.163 8 16.7989 8.26339 17.2678 8.73223C17.7366 9.20107 18 9.83696 18 10.5C18 11.163 17.7366 11.7989 17.2678 12.2678C16.7989 12.7366 16.163 13 15.5 13ZM15.5 9C14.67 9 14 9.67 14 10.5C14 11.33 14.67 12 15.5 12C16.33 12 17 11.33 17 10.5C17 9.67 16.33 9 15.5 9Z" fill="#171B2A"/>
<path d="M21.5 17C21.22 17 21 16.78 21 16.5C21 16.22 21.22 16 21.5 16C21.78 16 22 15.78 22 15.5C22 14.837 21.7366 14.2011 21.2678 13.7322C20.7989 13.2634 20.163 13 19.5 13H18.5C18.22 13 18 12.78 18 12.5C18 12.22 18.22 12 18.5 12C19.33 12 20 11.33 20 10.5C20 9.67 19.33 9 18.5 9C18.22 9 18 8.78 18 8.5C18 8.22 18.22 8 18.5 8C19.163 8 19.7989 8.26339 20.2678 8.73223C20.7366 9.20107 21 9.83696 21 10.5C21 11.12 20.78 11.68 20.4 12.12C21.89 12.52 23 13.88 23 15.5C23 16.33 22.33 17 21.5 17ZM9.5 17C8.67 17 8 16.33 8 15.5C8 13.88 9.1 12.52 10.6 12.12C10.23 11.68 10 11.12 10 10.5C10 9.83696 10.2634 9.20107 10.7322 8.73223C11.2011 8.26339 11.837 8 12.5 8C12.78 8 13 8.22 13 8.5C13 8.78 12.78 9 12.5 9C11.67 9 11 9.67 11 10.5C11 11.33 11.67 12 12.5 12C12.78 12 13 12.22 13 12.5C13 12.78 12.78 13 12.5 13H11.5C10.837 13 10.2011 13.2634 9.73223 13.7322C9.26339 14.2011 9 14.837 9 15.5C9 15.78 9.22 16 9.5 16C9.78 16 10 16.22 10 16.5C10 16.78 9.78 17 9.5 17ZM18.5 20H12.5C11.67 20 11 19.33 11 18.5V17.5C11 15.57 12.57 14 14.5 14H16.5C18.43 14 20 15.57 20 17.5V18.5C20 19.33 19.33 20 18.5 20ZM14.5 15C13.837 15 13.2011 15.2634 12.7322 15.7322C12.2634 16.2011 12 16.837 12 17.5V18.5C12 18.78 12.22 19 12.5 19H18.5C18.78 19 19 18.78 19 18.5V17.5C19 16.837 18.7366 16.2011 18.2678 15.7322C17.7989 15.2634 17.163 15 16.5 15H14.5Z" fill="#171B2A"/>
</g>
<defs>
<clipPath id="clip0_2622_3301">
<rect width="15" height="16" fill="white" transform="translate(8 6)"/>
</clipPath>
</defs>
</svg>
