<svg width="25" height="24" viewBox="0 0 25 24" fill="none" xmlns="http://www.w3.org/2000/svg">
<path d="M12.416 22C17.9389 22 22.416 17.5228 22.416 12C22.416 6.47715 17.9389 2 12.416 2C6.89317 2 2.41602 6.47715 2.41602 12C2.41602 17.5228 6.89317 22 12.416 22Z" stroke="black" stroke-width="1.5"/>
<path d="M9.41602 16C10.266 16.63 11.301 17 12.416 17C13.531 17 14.566 16.63 15.416 16" stroke="black" stroke-width="1.5" stroke-linecap="round"/>
<path d="M16.416 10.5C16.416 11.328 15.968 12 15.416 12C14.864 12 14.416 11.328 14.416 10.5C14.416 9.672 14.864 9 15.416 9C15.968 9 16.416 9.672 16.416 10.5Z" fill="black"/>
<path d="M9.41602 12C9.9683 12 10.416 11.3284 10.416 10.5C10.416 9.67157 9.9683 9 9.41602 9C8.86373 9 8.41602 9.67157 8.41602 10.5C8.41602 11.3284 8.86373 12 9.41602 12Z" fill="black"/>
</svg>
