<svg width="25" height="25" viewBox="0 0 25 25" fill="none" xmlns="http://www.w3.org/2000/svg">
<g clip-path="url(#clip0_2250_4410)">
<path d="M20.0497 14.8524C20.3046 14.8527 20.5497 14.9503 20.735 15.1252C20.9204 15.3002 21.0319 15.5394 21.0468 15.7938C21.0618 16.0482 20.979 16.2988 20.8154 16.4942C20.6518 16.6897 20.4198 16.8153 20.1667 16.8454L20.0497 16.8524H6.46367L8.75667 19.1454C8.93602 19.3254 9.04015 19.5668 9.0479 19.8208C9.05566 20.0747 8.96646 20.3221 8.79843 20.5127C8.63039 20.7032 8.39612 20.8227 8.1432 20.8468C7.89028 20.8709 7.63767 20.7978 7.43667 20.6424L7.34267 20.5594L3.51267 16.7294C2.84767 16.0654 3.27367 14.9464 4.17567 14.8584L4.29067 14.8524H20.0497ZM15.3427 5.1454C15.5149 4.97322 15.744 4.86979 15.987 4.85451C16.23 4.83923 16.4703 4.91315 16.6627 5.0624L16.7567 5.1454L20.5867 8.9754C21.2517 9.6394 20.8257 10.7584 19.9237 10.8464L19.8087 10.8524H4.04967C3.79479 10.8521 3.54964 10.7545 3.36431 10.5796C3.17897 10.4046 3.06744 10.1654 3.0525 9.91101C3.03756 9.65656 3.12035 9.40602 3.28394 9.21057C3.44753 9.01511 3.67958 8.8895 3.93267 8.8594L4.04967 8.8524H17.6357L15.3427 6.5594C15.1552 6.37187 15.0499 6.11756 15.0499 5.8524C15.0499 5.58724 15.1552 5.33293 15.3427 5.1454Z" fill="black"/>
</g>
<defs>
<clipPath id="clip0_2250_4410">
<rect width="24" height="24" fill="white" transform="translate(0.0498047 0.852539)"/>
</clipPath>
</defs>
</svg>
