<svg width="16" height="15" viewBox="0 0 16 15" fill="none" xmlns="http://www.w3.org/2000/svg">
<path fill-rule="evenodd" clip-rule="evenodd" d="M15.2098 6.63356C14.9921 7.19314 14.9921 7.81398 15.2098 8.37356L15.3374 8.74106C15.802 9.95448 15.2393 11.3196 14.0545 11.8536L13.7169 12.0036C13.1631 12.2421 12.7151 12.674 12.4564 13.2186L12.3064 13.5561C11.7722 14.7405 10.4067 15.303 9.19289 14.8386L8.84777 14.7111C8.28801 14.4934 7.66697 14.4934 7.10721 14.7111L6.7621 14.8386C5.54828 15.303 4.18275 14.7405 3.64859 13.5561L3.49854 13.2186C3.25988 12.665 2.82787 12.2171 2.28315 11.9586L1.94554 11.8086C0.760683 11.2746 0.198019 9.90948 0.662625 8.69606L0.790167 8.35106C1.00789 7.79148 1.00789 7.17064 0.790167 6.61106L0.662625 6.26606C0.198019 5.05263 0.760683 3.68754 1.94554 3.15356L2.28315 3.00356C2.82004 2.7561 3.251 2.32527 3.49854 1.78856L3.6711 1.45106C4.20585 0.254692 5.58691 -0.310103 6.80711 0.168557L7.15223 0.296057C7.71199 0.513709 8.33303 0.513709 8.89279 0.296057L9.2379 0.168557C10.4517 -0.295899 11.8172 0.266583 12.3514 1.45106L12.5015 1.78856C12.749 2.32527 13.18 2.7561 13.7169 3.00356L14.0545 3.17606C15.2393 3.71004 15.802 5.07513 15.3374 6.28856L15.2098 6.63356ZM7.04719 10.0161L11.2636 5.80105C11.4017 5.65619 11.4017 5.42842 11.2636 5.28355L10.8659 4.88605C10.7201 4.74313 10.4866 4.74313 10.3408 4.88605L6.78461 8.44105L5.65924 7.32355C5.59117 7.25105 5.49613 7.20992 5.39666 7.20992C5.29719 7.20992 5.20215 7.25105 5.13407 7.32355L4.73644 7.72105C4.66543 7.79147 4.62548 7.88732 4.62548 7.9873C4.62548 8.08729 4.66543 8.18314 4.73644 8.25355L6.52202 10.0161C6.59009 10.0886 6.68514 10.1297 6.78461 10.1297C6.88408 10.1297 6.97912 10.0886 7.04719 10.0161Z" fill="black"/>
<path fill-rule="evenodd" clip-rule="evenodd" d="M15.2098 6.63356C14.9921 7.19314 14.9921 7.81398 15.2098 8.37356L15.3374 8.74106C15.802 9.95448 15.2393 11.3196 14.0545 11.8536L13.7169 12.0036C13.1631 12.2421 12.7151 12.674 12.4564 13.2186L12.3064 13.5561C11.7722 14.7405 10.4067 15.303 9.19289 14.8386L8.84777 14.7111C8.28801 14.4934 7.66697 14.4934 7.10721 14.7111L6.7621 14.8386C5.54828 15.303 4.18275 14.7405 3.64859 13.5561L3.49854 13.2186C3.25988 12.665 2.82787 12.2171 2.28315 11.9586L1.94554 11.8086C0.760683 11.2746 0.198019 9.90948 0.662625 8.69606L0.790167 8.35106C1.00789 7.79148 1.00789 7.17064 0.790167 6.61106L0.662625 6.26606C0.198019 5.05263 0.760683 3.68754 1.94554 3.15356L2.28315 3.00356C2.82004 2.7561 3.251 2.32527 3.49854 1.78856L3.6711 1.45106C4.20585 0.254692 5.58691 -0.310103 6.80711 0.168557L7.15223 0.296057C7.71199 0.513709 8.33303 0.513709 8.89279 0.296057L9.2379 0.168557C10.4517 -0.295899 11.8172 0.266583 12.3514 1.45106L12.5015 1.78856C12.749 2.32527 13.18 2.7561 13.7169 3.00356L14.0545 3.17606C15.2393 3.71004 15.802 5.07513 15.3374 6.28856L15.2098 6.63356ZM7.04719 10.0161L11.2636 5.80105C11.4017 5.65619 11.4017 5.42842 11.2636 5.28355L10.8659 4.88605C10.7201 4.74313 10.4866 4.74313 10.3408 4.88605L6.78461 8.44105L5.65924 7.32355C5.59117 7.25105 5.49613 7.20992 5.39666 7.20992C5.29719 7.20992 5.20215 7.25105 5.13407 7.32355L4.73644 7.72105C4.66543 7.79147 4.62548 7.88732 4.62548 7.9873C4.62548 8.08729 4.66543 8.18314 4.73644 8.25355L6.52202 10.0161C6.59009 10.0886 6.68514 10.1297 6.78461 10.1297C6.88408 10.1297 6.97912 10.0886 7.04719 10.0161Z" fill="#008D24"/>
</svg>
